<?xml version="1.0" standalone="no"?>
<!DOCTYPE svg PUBLIC "-//W3C//DTD SVG 20010904//EN"
 "http://www.w3.org/TR/2001/REC-SVG-20010904/DTD/svg10.dtd">
<svg version="1.0" xmlns="http://www.w3.org/2000/svg"
 width="980.000000pt" height="980.000000pt" viewBox="0 0 980.000000 980.000000"
 preserveAspectRatio="xMidYMid meet">

<g transform="translate(0.000000,980.000000) scale(0.100000,-0.100000)"
fill="#000000" stroke="none">
<path d="M4640 9793 c-381 -26 -614 -62 -940 -143 -590 -147 -1173 -420 -1675
-785 -406 -296 -815 -706 -1103 -1108 -728 -1016 -1039 -2244 -881 -3482 118
-922 488 -1770 1094 -2507 140 -170 461 -491 633 -633 1073 -885 2424 -1273
3787 -1090 1037 140 1999 607 2750 1337 299 290 537 585 767 951 101 161 313
582 384 762 615 1567 393 3326 -591 4680 -284 390 -665 775 -1050 1060 -857
636 -1885 972 -2940 963 -104 -1 -210 -3 -235 -5z m2630 -2259 c79 -37 128
-78 169 -142 66 -103 61 69 59 -2478 l-3 -2309 -23 -57 c-33 -81 -108 -160
-190 -200 l-67 -33 -2330 0 -2330 0 -65 31 c-83 39 -145 101 -184 184 l-31 65
0 2345 0 2345 26 55 c48 102 133 177 238 211 53 17 168 18 2361 16 l2305 -2
65 -31z"/>
<path d="M3382 6679 c-138 -18 -266 -108 -325 -228 -30 -62 -32 -72 -32 -176
0 -104 2 -114 33 -177 42 -85 129 -168 207 -197 159 -60 345 -42 470 44 61 42
98 87 133 163 24 51 27 69 27 167 0 99 -3 116 -28 169 -15 33 -43 78 -61 100
-85 103 -257 158 -424 135z"/>
<path d="M5690 5590 c-189 -19 -334 -85 -467 -213 -34 -32 -79 -84 -100 -114
l-38 -55 -3 166 -2 166 -393 0 -392 0 -2 -1190 -2 -1190 394 0 395 0 0 693 c0
435 4 716 11 757 18 114 97 233 194 296 77 49 152 67 255 62 181 -8 288 -100
346 -293 16 -54 19 -128 24 -785 l5 -725 393 -3 392 -2 0 757 c0 623 -3 776
-15 858 -54 354 -213 601 -470 725 -115 56 -185 76 -316 90 -102 11 -100 11
-209 0z"/>
<path d="M3062 4353 l3 -1188 393 -3 392 -2 0 1190 0 1190 -395 0 -395 0 2
-1187z"/>
</g>
</svg>
