<?xml version="1.0" standalone="no"?>
<!DOCTYPE svg PUBLIC "-//W3C//DTD SVG 20010904//EN"
 "http://www.w3.org/TR/2001/REC-SVG-20010904/DTD/svg10.dtd">
<svg version="1.0" xmlns="http://www.w3.org/2000/svg"
 width="411.000000pt" height="402.000000pt" viewBox="0 0 411.000000 402.000000"
 preserveAspectRatio="xMidYMid meet">

<g transform="translate(0.000000,402.000000) scale(0.100000,-0.100000)"
fill="#000000" stroke="none">
<path d="M1810 3976 c-384 -51 -766 -210 -1029 -431 -117 -98 -304 -292 -378
-392 -159 -214 -280 -493 -332 -766 -18 -93 -21 -146 -21 -379 0 -255 2 -277
26 -387 68 -304 186 -556 376 -803 271 -350 683 -609 1153 -724 120 -29 438
-49 615 -39 354 20 770 180 1082 416 106 80 287 261 367 367 323 428 455 947
375 1479 -49 332 -203 674 -420 934 -88 106 -275 283 -371 352 -249 178 -554
303 -868 357 -157 27 -430 34 -575 16z m761 -532 c10 -13 15 -69 17 -225 l4
-209 119 0 119 0 1 198 c1 212 5 245 32 250 24 5 148 -122 176 -180 48 -101
48 -235 0 -330 -28 -55 -112 -135 -188 -178 l-60 -35 -1 -159 0 -159 -70 5
c-39 3 -74 8 -77 12 -4 3 -9 72 -12 153 l-6 148 -65 35 c-36 19 -93 62 -127
95 -54 53 -64 69 -83 133 -45 148 -12 260 115 390 39 39 76 72 82 72 6 0 17
-7 24 -16z m-282 -243 c19 -11 22 -18 17 -43 -9 -43 11 -154 38 -213 26 -57
93 -127 184 -192 l62 -45 1 -116 c0 -65 3 -135 7 -157 l7 -40 97 0 c66 0 101
4 110 13 9 9 14 56 16 160 l3 147 35 23 c20 13 43 22 52 20 26 -5 91 -139 117
-244 72 -284 41 -557 -89 -770 -28 -46 -107 -151 -176 -234 -158 -190 -194
-246 -225 -342 -30 -94 -65 -263 -65 -312 l0 -36 -293 0 c-162 0 -375 3 -474
7 l-181 6 -6 50 c-3 28 -12 57 -20 65 -11 11 -60 17 -193 23 -255 12 -330 32
-387 99 -31 38 -34 90 -10 190 10 44 13 86 9 131 -8 77 -1 86 71 95 98 12 97
27 -5 43 -95 15 -105 28 -98 129 l6 82 -62 28 c-55 25 -117 79 -117 101 0 23
114 168 246 314 l71 79 5 136 c4 129 6 141 37 205 135 283 541 578 836 607
113 12 346 6 374 -9z"/>
<path d="M1902 3067 c-7 -8 -18 -32 -26 -53 -16 -46 -36 -53 -75 -25 -40 29
-62 26 -99 -12 l-32 -33 26 -37 c36 -54 30 -78 -26 -91 -45 -11 -45 -11 -48
-58 -4 -56 21 -88 68 -88 24 0 30 -4 30 -22 0 -13 -11 -41 -24 -63 l-25 -40
32 -32 c36 -38 54 -41 99 -13 50 30 66 26 78 -20 13 -49 34 -70 69 -70 28 0
61 26 61 48 0 26 25 62 42 62 11 0 35 -12 54 -27 l35 -26 44 43 44 43 -29 38
c-40 49 -38 65 8 79 57 19 72 37 72 86 0 48 -8 56 -65 64 -53 7 -58 35 -13 85
l32 37 -44 38 -45 38 -44 -26 c-53 -31 -71 -23 -86 39 -11 43 -12 44 -56 47
-30 2 -50 -2 -57 -11z m89 -83 c15 -27 35 -51 45 -53 10 -2 37 7 60 19 43 24
74 22 74 -4 0 -8 -11 -36 -25 -62 l-25 -47 21 -23 c12 -13 36 -26 53 -30 75
-16 74 -45 -4 -84 -33 -17 -60 -37 -60 -45 0 -8 10 -35 22 -60 30 -62 17 -76
-51 -52 -71 25 -87 22 -100 -15 -23 -63 -37 -83 -56 -83 -14 0 -24 11 -33 40
-7 22 -21 49 -32 59 -18 19 -20 19 -75 1 -70 -22 -87 -12 -66 38 8 17 14 45
15 61 1 25 -6 34 -44 56 -60 35 -59 58 3 87 52 25 57 40 32 100 -32 75 -12 97
55 63 51 -26 82 -21 99 17 21 48 42 74 54 70 7 -2 24 -26 38 -53z"/>
<path d="M1879 2811 c-41 -41 -39 -83 5 -127 23 -23 43 -34 63 -34 47 0 93 55
93 111 0 35 -53 79 -95 79 -27 0 -44 -8 -66 -29z m113 -24 c11 -17 10 -55 -2
-78 -11 -19 -43 -25 -75 -13 -37 14 -42 98 -7 108 26 7 75 -3 84 -17z"/>
<path d="M1568 2449 c-10 -5 -18 -20 -18 -33 0 -39 -22 -57 -82 -65 -95 -13
-119 -50 -69 -107 17 -19 31 -41 31 -49 0 -8 -15 -32 -34 -53 l-34 -37 28 -34
c24 -30 32 -34 70 -33 51 2 87 -18 92 -50 4 -27 50 -52 81 -44 14 3 30 22 42
48 l20 43 58 0 c46 0 61 4 73 19 20 29 17 54 -11 88 -32 38 -32 63 2 110 26
38 26 40 10 73 -16 34 -48 47 -62 25 -3 -5 -19 -10 -35 -10 -31 0 -53 24 -64
71 -3 14 -17 31 -31 37 -31 14 -44 15 -67 1z m73 -83 c26 -42 29 -44 88 -51
34 -4 64 -11 67 -17 3 -5 -6 -27 -21 -48 -30 -44 -29 -72 6 -121 32 -46 21
-59 -51 -59 -56 0 -89 -18 -98 -53 -11 -42 -30 -45 -43 -8 -12 35 -53 61 -97
61 -16 0 -43 5 -61 11 l-32 11 35 33 c45 41 46 68 6 123 -16 23 -30 46 -30 51
0 4 26 11 58 14 70 6 95 20 116 64 9 18 19 33 23 33 5 0 20 -20 34 -44z"/>
<path d="M1567 2242 c-21 -23 -21 -45 -2 -82 18 -36 45 -38 86 -9 35 25 37 52
4 84 -29 30 -65 32 -88 7z m69 -27 c4 -8 -1 -27 -11 -41 -16 -25 -17 -25 -36
-8 -10 9 -19 22 -19 29 0 31 56 48 66 20z"/>
<path d="M2440 2313 c-12 -16 -31 -44 -43 -63 -33 -51 -62 -47 -109 15 -46 61
-66 69 -109 46 l-34 -19 0 -85 c0 -50 -5 -91 -11 -97 -8 -8 -28 -8 -73 0 -69
12 -81 8 -107 -41 -25 -49 -18 -66 44 -105 56 -36 72 -51 72 -67 0 -10 -52
-63 -94 -95 l-29 -22 22 -48 22 -47 87 0 87 0 5 -82 c3 -45 10 -86 15 -91 6
-5 25 -14 44 -21 42 -14 50 -8 91 64 47 81 68 82 126 4 41 -56 72 -69 109 -45
38 25 44 45 34 109 -7 40 -6 64 2 79 10 19 17 20 90 15 l80 -5 14 35 c26 63
21 75 -50 121 -36 23 -65 48 -65 56 0 13 29 41 109 104 l24 19 -24 44 -25 44
-92 -3 -92 -3 0 91 0 91 -35 15 c-48 20 -60 18 -85 -13z m80 -28 c8 -10 10
-35 5 -83 -7 -68 -6 -70 22 -92 24 -19 35 -21 78 -15 97 12 100 12 103 -13 3
-17 -11 -38 -47 -77 -28 -30 -51 -61 -51 -69 0 -31 24 -65 66 -95 48 -35 63
-66 42 -87 -11 -11 -25 -12 -76 -2 l-63 12 -31 -32 -32 -31 12 -66 c13 -69 5
-105 -23 -105 -8 0 -31 23 -52 51 -62 87 -106 87 -178 3 -29 -33 -55 -54 -67
-54 -20 0 -21 4 -15 85 l5 86 -29 14 c-31 17 -76 19 -130 6 -77 -18 -96 38
-29 83 87 58 89 109 4 182 -86 73 -70 107 39 85 55 -11 62 -11 86 7 40 29 48
64 27 111 -24 51 -15 91 18 91 16 0 38 -17 71 -55 29 -34 54 -55 68 -55 12 0
45 25 83 65 34 36 67 65 72 65 5 0 15 -7 22 -15z"/>
<path d="M2280 2013 c-44 -44 -50 -55 -50 -93 0 -122 122 -189 220 -120 109
77 59 229 -83 255 -35 7 -40 4 -87 -42z m163 -22 c18 -17 22 -33 22 -81 0 -79
-23 -105 -96 -105 -45 0 -54 4 -80 33 -42 47 -41 111 1 154 28 28 35 30 81 26
34 -4 58 -12 72 -27z"/>
</g>
</svg>
